# xmcd
#
# Track frame offsets:
# 150
# 15430
# 34360
#
# Disc length: 846 seconds
#
#
# Revision: 1
# Processed by: cddbd v1.5.2PL0 Copyright (c) Steve Scherf et al.
# Submitted via: FreeRIP 2.951 
#
DISCID=1a034c03
DTITLE=Rob Zombie - Living Dead Girl
DYEAR=1999
DGENRE=
TTITLE0=Living Dead Girl (LP Version)
TTITLE1=Living Dead Girl (Naked Exorcism Mix)
TTITLE2=Living Dead Girl (D.O.S.E. Mix)
EXTD=
EXTT0=
EXTT1=
EXTT2=
PLAYORDER=
